<svg width="25" height="23" viewBox="0 0 25 23" fill="none" xmlns="http://www.w3.org/2000/svg">
<path d="M4.22139 18.0341C3.19611 19.0107 2.7567 20.0959 2.63953 21.3167C2.61023 21.5337 2.63953 21.7507 2.58094 21.9678C2.46377 22.5918 2.05365 22.9444 1.35061 22.863C0.676851 22.7817 0.413208 22.4018 0.413208 21.805C0.442502 19.8246 1.05767 18.0612 2.61023 16.6505C3.07893 16.2164 3.13752 15.8637 2.99105 15.294C1.67284 10.3023 5.04161 5.58178 10.4609 4.65939C12.3064 4.33384 14.1519 3.92691 15.9974 3.46571C17.6379 3.0859 18.9854 2.21777 20.0986 1.05122C21.241 -0.142465 21.8855 -0.0339483 22.6471 1.4039C24.4926 4.8493 25.1957 8.45747 24.5219 12.2284C23.5552 17.7899 16.7005 23.1615 9.64072 21.5337C7.70733 21.0996 6.15477 20.0687 4.83655 18.7123C4.66079 18.5224 4.48503 18.3053 4.22139 18.0341ZM6.15477 16.759C7.56087 18.8479 10.0801 20.0416 12.7751 19.7703C17.0813 19.3363 20.0986 17.1388 21.8269 13.5035C22.9401 11.1975 22.6764 8.78302 22.2077 6.39566C21.9734 5.31049 21.534 4.25246 21.1238 2.97739C19.1612 4.82217 16.847 5.47327 14.4742 5.98872C13.0095 6.31427 11.5155 6.55843 10.0508 6.91111C6.35983 7.8335 4.19209 11.4145 5.21737 14.8328C8.17603 14.2631 11.0175 13.4492 13.361 11.5502C14.0348 11.0076 14.7085 10.9805 15.1479 11.4145C15.6166 11.9029 15.5287 12.5268 14.8257 13.0966C12.8337 14.67 10.5488 15.701 8.02957 16.2978C7.4144 16.4334 6.85782 16.5962 6.15477 16.759Z" fill="#239023"/>
</svg>
